<?xml version="1.0" encoding="UTF-8"?>
<svg xmlns="http://www.w3.org/2000/svg" xmlns:xlink="http://www.w3.org/1999/xlink" width="30pt" height="30pt" viewBox="0 0 30 30" version="1.1">
<g id="surface1">
<path style=" stroke:none;fill-rule:nonzero;fill:rgb(0%,0%,0%);fill-opacity:1;" d="M 9.183594 6.652344 C 8.019531 7.085938 6.898438 8.257812 6.597656 9.375 C 6.476562 9.785156 6.453125 11.433594 6.476562 15.082031 C 6.523438 20.199219 6.523438 20.214844 6.839844 20.863281 C 7.230469 21.664062 7.980469 22.40625 8.796875 22.8125 C 9.40625 23.113281 9.484375 23.113281 14.632812 23.152344 C 19.660156 23.191406 19.882812 23.175781 20.585938 22.914062 C 21.480469 22.574219 22.351562 21.78125 22.78125 20.871094 L 23.113281 20.214844 L 23.113281 14.816406 C 23.113281 9.445312 23.113281 9.414062 22.8125 8.796875 C 22.40625 7.980469 21.664062 7.230469 20.863281 6.839844 L 20.214844 6.523438 L 14.949219 6.492188 C 10.671875 6.46875 9.589844 6.507812 9.183594 6.652344 Z M 20.285156 7.847656 C 20.976562 8.179688 21.640625 8.875 21.871094 9.574219 C 22.132812 10.300781 22.132812 19.335938 21.871094 20.070312 C 21.625 20.792969 20.902344 21.546875 20.175781 21.820312 C 19.621094 22.035156 19.066406 22.058594 14.816406 22.058594 C 9.453125 22.058594 9.242188 22.019531 8.386719 21.085938 C 7.585938 20.199219 7.570312 20.0625 7.570312 14.816406 C 7.570312 9.636719 7.601562 9.445312 8.335938 8.613281 C 9.226562 7.585938 9.613281 7.515625 15.082031 7.546875 C 19.453125 7.570312 19.714844 7.585938 20.285156 7.847656 Z M 20.285156 7.847656 "/>
<path style=" stroke:none;fill-rule:nonzero;fill:rgb(0%,0%,0%);fill-opacity:1;" d="M 18.84375 9.429688 C 18.480469 9.890625 18.503906 10.339844 18.898438 10.730469 C 19.527344 11.378906 20.546875 10.949219 20.546875 10.039062 C 20.546875 9.128906 19.398438 8.734375 18.84375 9.429688 Z M 18.84375 9.429688 "/>
<path style=" stroke:none;fill-rule:nonzero;fill:rgb(0%,0%,0%);fill-opacity:1;" d="M 13.105469 10.730469 C 10.933594 11.617188 9.851562 14.15625 10.679688 16.421875 C 11.078125 17.476562 12.15625 18.558594 13.238281 18.964844 C 13.878906 19.203125 14.222656 19.242188 15.082031 19.203125 C 16.304688 19.136719 17.015625 18.835938 17.886719 17.988281 C 18.75 17.160156 19.136719 16.328125 19.203125 15.082031 C 19.28125 13.617188 18.933594 12.707031 17.925781 11.710938 C 16.621094 10.398438 14.800781 10.039062 13.105469 10.730469 Z M 16.554688 12.066406 C 17.609375 12.722656 18.242188 14.054688 18.078125 15.289062 C 17.964844 16.089844 17.277344 17.125 16.566406 17.554688 C 15.410156 18.265625 14.285156 18.28125 13.144531 17.59375 C 11.0625 16.359375 11.03125 13.328125 13.089844 12.066406 C 14.1875 11.378906 15.449219 11.394531 16.554688 12.066406 Z M 16.554688 12.066406 "/>
</g>
</svg>
