<?xml version="1.0" encoding="UTF-8"?>
<svg xmlns="http://www.w3.org/2000/svg" xmlns:xlink="http://www.w3.org/1999/xlink" width="30pt" height="30pt" viewBox="0 0 30 30" version="1.1">
<g id="surface1">
<path style=" stroke:none;fill-rule:nonzero;fill:rgb(0%,0%,0%);fill-opacity:1;" d="M 4.644531 2.507812 C 3.570312 2.789062 2.746094 3.636719 2.488281 4.71875 C 2.402344 5.089844 2.390625 6.4375 2.390625 15 C 2.390625 25.765625 2.375 25.308594 2.769531 26.039062 C 3 26.457031 3.542969 27 3.960938 27.230469 C 4.691406 27.625 4.234375 27.609375 15 27.609375 C 25.765625 27.609375 25.308594 27.625 26.039062 27.230469 C 26.457031 27 27 26.457031 27.230469 26.039062 C 27.625 25.308594 27.609375 25.765625 27.609375 15 C 27.609375 4.234375 27.625 4.691406 27.230469 3.960938 C 27 3.542969 26.457031 3 26.039062 2.769531 C 25.308594 2.375 25.773438 2.390625 14.96875 2.394531 C 5.878906 2.394531 5.042969 2.410156 4.644531 2.507812 Z M 25.292969 3.730469 C 25.652344 3.890625 26.058594 4.28125 26.230469 4.632812 L 26.382812 4.945312 L 26.382812 15 C 26.382812 24.210938 26.375 25.074219 26.269531 25.292969 C 26.109375 25.652344 25.71875 26.058594 25.367188 26.230469 L 25.054688 26.382812 L 4.945312 26.382812 L 4.632812 26.230469 C 4.28125 26.058594 3.890625 25.652344 3.730469 25.292969 C 3.625 25.074219 3.617188 24.199219 3.597656 15.199219 C 3.585938 8.371094 3.605469 5.238281 3.652344 4.996094 C 3.777344 4.394531 4.300781 3.835938 4.898438 3.675781 C 5.144531 3.609375 7.292969 3.597656 15.132812 3.605469 C 24.199219 3.617188 25.074219 3.625 25.292969 3.730469 Z M 25.292969 3.730469 "/>
<path style=" stroke:none;fill-rule:nonzero;fill:rgb(0%,0%,0%);fill-opacity:1;" d="M 12.804688 9.71875 C 12.074219 9.910156 11.613281 10.359375 11.613281 10.871094 C 11.613281 11.089844 11.65625 11.171875 11.820312 11.308594 C 11.933594 11.402344 12.078125 11.480469 12.144531 11.480469 C 12.210938 11.480469 12.332031 11.542969 12.417969 11.609375 C 12.570312 11.734375 12.578125 11.769531 12.597656 12.871094 C 12.617188 13.621094 12.597656 14.003906 12.550781 14.003906 C 12.40625 14.003906 11.570312 12.671875 10.796875 11.21875 C 10.585938 10.804688 10.425781 10.597656 10.226562 10.453125 L 9.941406 10.253906 L 8.308594 10.234375 C 6.777344 10.222656 6.65625 10.226562 6.457031 10.347656 C 6.160156 10.53125 6.019531 10.777344 6.019531 11.105469 C 6.019531 11.742188 8.171875 15.492188 9.496094 17.15625 C 10.394531 18.292969 11.070312 18.894531 11.894531 19.28125 C 12.742188 19.679688 13.015625 19.726562 14.703125 19.757812 C 16.074219 19.785156 16.246094 19.773438 16.460938 19.664062 C 16.757812 19.511719 16.910156 19.234375 16.976562 18.722656 C 17.0625 18.09375 17.125 18.085938 17.601562 18.617188 C 18.363281 19.472656 18.882812 19.945312 19.28125 20.144531 L 19.679688 20.34375 L 21.273438 20.363281 C 23.058594 20.390625 23.230469 20.363281 23.628906 19.996094 C 24.398438 19.308594 24.019531 18.445312 22.128906 16.574219 L 21.210938 15.671875 L 21.503906 15.253906 C 21.671875 15.019531 22.09375 14.429688 22.460938 13.9375 C 23.679688 12.292969 24.097656 11.503906 23.988281 11.039062 C 23.902344 10.671875 23.753906 10.472656 23.476562 10.347656 C 23.222656 10.234375 23.023438 10.222656 21.503906 10.222656 C 20.574219 10.222656 19.707031 10.246094 19.585938 10.289062 C 19.222656 10.386719 19.003906 10.660156 18.570312 11.515625 C 18.105469 12.445312 17.792969 12.976562 17.449219 13.441406 C 17.003906 14.03125 16.9375 14.105469 16.878906 14.050781 C 16.851562 14.019531 16.839844 13.3125 16.851562 12.492188 C 16.871094 10.851562 16.839844 10.558594 16.554688 10.222656 C 16.347656 9.980469 16.082031 9.835938 15.628906 9.71875 C 15.199219 9.597656 13.226562 9.597656 12.804688 9.71875 Z M 15.410156 10.898438 L 15.671875 10.976562 L 15.652344 12.738281 C 15.628906 14.714844 15.65625 14.875 16.101562 15.257812 C 16.953125 16.007812 18.105469 15.011719 19.511719 12.324219 L 19.992188 11.414062 L 22.699219 11.414062 L 22.574219 11.660156 C 22.421875 11.960938 21.691406 12.976562 20.941406 13.9375 C 20.640625 14.324219 20.324219 14.769531 20.238281 14.933594 C 20.042969 15.3125 20.023438 15.863281 20.203125 16.207031 C 20.269531 16.347656 20.78125 16.917969 21.332031 17.46875 C 21.882812 18.027344 22.433594 18.628906 22.554688 18.816406 L 22.773438 19.148438 L 21.410156 19.167969 C 20.171875 19.179688 20.023438 19.175781 19.792969 19.054688 C 19.652344 18.980469 19.1875 18.550781 18.75 18.085938 C 18.304688 17.609375 17.847656 17.191406 17.695312 17.109375 C 16.925781 16.710938 16.042969 17.230469 15.855469 18.191406 L 15.777344 18.585938 L 14.667969 18.585938 C 13.433594 18.585938 13.023438 18.523438 12.496094 18.285156 C 11.46875 17.8125 10.246094 16.394531 8.789062 13.957031 C 8.230469 13.027344 7.433594 11.554688 7.433594 11.457031 C 7.433594 11.4375 7.910156 11.414062 8.488281 11.414062 L 9.542969 11.414062 L 9.929688 12.125 C 10.488281 13.175781 11.191406 14.324219 11.503906 14.703125 C 12 15.296875 12.253906 15.457031 12.695312 15.464844 C 13.546875 15.472656 13.804688 14.878906 13.804688 12.988281 C 13.804688 11.941406 13.707031 11.222656 13.53125 11.050781 C 13.359375 10.878906 13.527344 10.84375 14.496094 10.824219 C 14.855469 10.824219 15.265625 10.851562 15.410156 10.898438 Z M 15.410156 10.898438 "/>
</g>
</svg>
